<svg id="Layer_1" data-name="Layer 1" xmlns="http://www.w3.org/2000/svg" viewBox="0 0 128 128"><defs><style>.cls-1{fill:#4c5665;}.cls-2{fill:#414a55;opacity:0.5;}.cls-3{fill:#fdefe0;}.cls-4{fill:#629986;}.cls-5{fill:#2e3f46;}</style></defs><title>icon_fill-form</title><rect class="cls-1" x="14.32" y="9.98" width="99.09" height="103.41" rx="6"/><rect class="cls-2" x="14.32" y="14.03" width="99.09" height="103.41" rx="6"/><rect class="cls-3" x="22.36" y="18.44" width="83.69" height="85.68"/><rect class="cls-4" x="31.01" y="23.11" width="66.39" height="6.02"/><rect class="cls-4" x="31.01" y="63.78" width="33.2" height="6.02"/><rect class="cls-5" x="39.26" y="74.94" width="50.13" height="4.78"/><rect class="cls-5" x="39.26" y="84.24" width="58.15" height="4.78"/><rect class="cls-5" x="39.26" y="94.01" width="36.42" height="4.78"/><rect class="cls-5" x="39.26" y="34.93" width="50.13" height="4.78"/><rect class="cls-5" x="39.26" y="44.23" width="36.42" height="4.78"/><rect class="cls-5" x="39.26" y="54.01" width="42.05" height="4.78"/><circle class="cls-5" cx="33.4" cy="37.32" r="2.39"/><circle class="cls-5" cx="33.4" cy="46.62" r="2.39"/><circle class="cls-5" cx="33.4" cy="55.92" r="2.39"/><circle class="cls-5" cx="33.4" cy="77.57" r="2.39"/><circle class="cls-5" cx="33.4" cy="86.87" r="2.39"/><circle class="cls-5" cx="33.4" cy="96.17" r="2.39"/></svg>