<svg id="Layer_1" data-name="Layer 1" xmlns="http://www.w3.org/2000/svg" viewBox="0 0 72 60"><defs><style>.cls-1{fill:#ccc;}</style></defs><title>icon_photo</title><path class="cls-1" d="M37.15,34.28a4.56,4.56,0,0,0,4.6-4.59,4.61,4.61,0,0,0-4.6-4.6,4.6,4.6,0,0,0,0,9.19ZM49.66,52.9V47.4l-4.22-4-5.72,5.13a2.62,2.62,0,0,1-3.39,0L21.78,35.79,7.46,47.47V52.9ZM7.46,22V40.61L20.2,30.29a2.74,2.74,0,0,1,3.54.07L38.06,43,44,37.9a2.23,2.23,0,0,1,3.09,0l2.49,2.56V22Zm49,33.91a3,3,0,0,1-3,3h-49a3,3,0,0,1-3-3V19a3,3,0,0,1,3-3h49a3,3,0,0,1,3,3ZM70.54,14.76,63.38,49.28a2.25,2.25,0,0,1-2.18,1.81.92.92,0,0,1-.46-.08A2.18,2.18,0,0,1,59,48.38l6.71-32.26L22.46,7.3,21.4,12.13a2.27,2.27,0,1,1-4.44-1l1.58-7A2.28,2.28,0,0,1,21.18,2.4l47.63,9.65a2.16,2.16,0,0,1,1.43,1A2.73,2.73,0,0,1,70.54,14.76Z"/></svg>