<?xml version="1.0" encoding="utf-8"?>
<!-- Generator: Adobe Illustrator 23.1.1, SVG Export Plug-In . SVG Version: 6.00 Build 0)  -->
<svg version="1.1" id="Layer_1" xmlns="http://www.w3.org/2000/svg" xmlns:xlink="http://www.w3.org/1999/xlink" x="0px" y="0px"
	 viewBox="0 0 283.5 283.5" style="enable-background:new 0 0 283.5 283.5;" xml:space="preserve">
<style type="text/css">
	.st0{fill:#8E6FBF;}
	.st1{fill:#D2EAFF;}
	.st2{fill:#FFFCFD;}
	.st3{clip-path:url(#SVGID_2_);fill:#FFFCFD;}
	.st4{fill:#492882;}
	.st5{fill:#FFFFFF;}
</style>
<g>
	<path class="st0" d="M282.9,141.7c0-78-63.2-141.2-141.2-141.2C63.7,0.5,0.5,63.7,0.5,141.7c0,78,63.2,141.2,141.2,141.2
		C219.7,282.9,282.9,219.7,282.9,141.7"/>
	<rect x="119.2" y="212.6" class="st1" width="45.1" height="30.3"/>
	<path class="st2" d="M209.5,175.4c14.8,0,27-3.5,27-23.6c0-20-12.1-23.6-27-23.6V175.4z"/>
	<path class="st2" d="M57.1,163.8c0,29.7,24.3,54,54,54h61.3c29.7,0,54-24.3,54-54v-15.4c0-29.7-24.3-54-54-54h-61.3
		c-29.7,0-54,24.3-54,54V163.8z"/>
	<path class="st1" d="M172.4,189.2c18.3,0,33.1-14.9,33.1-33.1c0-18.3-14.9-33.1-33.1-33.1h-61.3C92.8,123,78,137.8,78,156.1
		c0,18.3,14.9,33.1,33.1,33.1H172.4z"/>
	<path class="st2" d="M165.3,114.7c0-14.8-3.5-27-23.6-27c-19.9,0-23.6,12.1-23.6,27H165.3z"/>
	<path class="st2" d="M131.5,57.7c0-5.6,4.6-10.2,10.2-10.2c5.6,0,10.2,4.6,10.2,10.2c0,5.6-4.6,10.2-10.2,10.2
		C136.1,67.9,131.5,63.4,131.5,57.7"/>
	<path class="st1" d="M134.7,59.8c0-5.6,4.6-10.2,10.2-10.2c1.4,0,2.8,0.3,4,0.8c-1.8-1.8-4.3-2.9-7.1-2.9
		c-5.6,0-10.2,4.6-10.2,10.2c0,4.2,2.6,7.9,6.2,9.4C135.8,65.3,134.7,62.7,134.7,59.8"/>
	<rect x="138.3" y="65.1" class="st2" width="6.8" height="25.6"/>
	<path class="st1" d="M111.1,94.4h12.3c-24.8,0-54.8,24.3-54.8,54v15.4c0,29.7,26.4,54,56,54h-13.5c-29.7,0-54-24.3-54-54v-15.4
		C57.1,118.7,81.4,94.4,111.1,94.4"/>
	<path class="st1" d="M65.8,128.6c-10.9,1.5-18.8,6.9-18.8,23.1c0,15.4,7.2,21.1,17.3,22.9C66.1,174.9,67.5,128.4,65.8,128.6"/>
	<path d="M120.9,156.1c0-4.9-4-8.9-8.9-8.9c-4.9,0-8.9,4-8.9,8.9c0,4.9,4,8.9,8.9,8.9C116.9,165,120.9,161,120.9,156.1"/>
	<path d="M180.3,156.1c0-4.9-4-8.9-8.9-8.9c-4.9,0-8.9,4-8.9,8.9c0,4.9,4,8.9,8.9,8.9C176.3,165,180.3,161,180.3,156.1"/>
	<g>
		<defs>
			<path id="SVGID_1_" d="M0,141.7c0,78.2,63.6,141.7,141.7,141.7c78.2,0,141.7-63.6,141.7-141.7C283.5,63.6,219.9,0,141.7,0
				C63.6,0,0,63.6,0,141.7"/>
		</defs>
		<clipPath id="SVGID_2_">
			<use xlink:href="#SVGID_1_"  style="overflow:visible;"/>
		</clipPath>
		<path class="st3" d="M193.7,273c0-24.1-18.4-39.1-52-39.1c-33.3,0-52,15-52,39.1c0,24.1,27.8,19.3,52,19.3
			C165.9,292.3,193.7,297.2,193.7,273"/>
	</g>
</g>
<g>
	<path class="st4" d="M44.7,65.4V62h34.1v3.4H70v4.4h9.6v3.4H70v5.5c0.1,3.2-1.5,4.8-4.9,4.7c-0.9,0.1-2.8,0.2-5.6,0.2
		c-0.1-1.1-0.4-2.3-0.9-3.5c1.6,0,3.2,0,4.7,0c1.8,0.1,2.7-0.6,2.6-2.1v-4.7h-0.9c-4.5,4.5-11.2,7.8-20.3,9.9
		c-0.4-1.2-1-2.4-1.7-3.7c7.3-1.1,12.9-3.2,16.8-6.2h-9.3l-0.6,1.7h-4.3l2.9-8.4l4.1,0.3l-1.1,3h14.3v-4.4H44.7z M49.9,62
		c-0.1-0.1-0.3-0.4-0.5-0.8c-0.4-0.9-0.8-1.6-1.2-2c4.3-0.9,6.6-2.6,7-5h-6.4v3h-4.1v-6.4h15.2v-3.5H64v3.5H79v6.2h-3.2
		c-0.2,2.3-1.5,3.5-4,3.5h-4.7c-2,0-3-0.9-3-2.6v-3.8h-5.8C58,57.9,55.2,60.5,49.9,62z M74.9,54.2h-7.6v3.2
		c-0.1,0.6,0.3,0.9,1.1,0.8h2.6c0.9,0.1,1.4-0.6,1.4-2.1c0.1,0,0.3,0.1,0.5,0.2c0.9,0.4,1.6,0.7,2.1,0.8V54.2z"/>
	<path class="st4" d="M82.5,58v-3.7h3.8v-7h3.8v7h3.4V58h-3.4v5.8l3.2-1.1v2.4c4.8-2.3,8.5-5.4,11.1-9.3l4.1,0.3l-0.6,1.1
		c3,3.7,6.9,6.2,11.4,7.8c-0.7,1.1-1.4,2.3-2,3.5c-1.4-0.6-3.1-1.5-5-2.7v2.1H99.2v-2c-1.3,1-2.9,2-4.7,3l-1.2-2.1l-3.2,1.1v11
		c0,2.7-1.3,4.2-3.8,4.4c-0.9,0-2.1,0-3.5,0.2c-0.1-0.4-0.2-1.1-0.3-2c-0.2-0.8-0.4-1.5-0.5-2c0.7,0,1.5,0,2.4,0
		c1.3,0.1,1.9-0.4,1.8-1.5v-8.8l-3.8,1.4L82,66.3c1.3-0.3,2.7-0.7,4.3-1.2v-7H82.5z M93.9,54.2v-3.4h4.7v-3.5h3.8v3.5h7.3v-3.5h3.8
		v3.5h5v3.4h-5v3h-3.8v-3h-7.3v3h-3.8v-3H93.9z M95.7,83.8V70.8H116v12.9h-3.7V82H99.5v1.8H95.7z M99.5,74v5h12.8v-5H99.5z
		 M105.8,59.9c-1.4,1.9-3.2,3.7-5.3,5.2h10.8C109.4,63.8,107.6,62.1,105.8,59.9z"/>
	<path class="st4" d="M164.7,81l-0.5-3.8c0.2,0,0.6,0,1.2,0c0.6-0.1,1.1-0.2,1.4-0.2V49.4h14v26.4l2-0.3c0,0.6,0,1.2,0,1.8
		c2.2-3.1,3.5-8.8,3.7-16.9c0-0.2,0-0.5,0.2-0.9c0-0.4,0-0.7,0-0.8h-4v-3.8h4l0.2-7.3h4c-0.1,1.7-0.2,4.2-0.2,7.3h9
		c-0.2,11.6-0.4,19.2-0.6,23c-0.1,3.2-1.7,4.9-4.9,5c-0.8,0.1-2.5,0.2-5.2,0.2c-0.2-1.2-0.5-2.5-0.8-3.8c1.6,0.1,3,0.2,4.3,0.2
		c1.7,0,2.6-0.9,2.7-2.6c0-0.3,0-0.7,0-1.2c0.3-7.4,0.5-13,0.5-16.9h-5.2c0,0.2,0,0.5,0,0.9c-0.1,0.4-0.2,0.7-0.2,0.9
		c0.1,11.1-2.4,18.8-7.6,23.3c-0.2-0.2-0.5-0.6-0.9-1.1c-0.7-0.8-1.3-1.5-1.8-2.1l1.4-1.2C177,79.6,171.4,80.1,164.7,81z
		 M170.5,52.7v5.8h6.6v-5.8H170.5z M170.5,61.7v5.6h6.6v-5.6H170.5z M170.5,76.6c0.1,0,0.3,0,0.5,0c1.9-0.1,4-0.3,6.1-0.6v-5.5h-6.6
		V76.6z"/>
	<path class="st4" d="M203.7,53.6v-3.8h11.9v3.8h-4v9h3.8v3.7h-3.8v9.3l4-0.9c0,1.4,0,2.7,0.2,4c-0.5,0.1-1.3,0.3-2.4,0.5
		c-4,0.6-7.1,1.2-9.4,1.7l-0.6-3.8l4.6-0.8v-9.9H204v-3.7h3.8v-9H203.7z M216.8,75v-3.4h9.1v-3.8h-8.7V48.9h21.2v18.9h-8.7v3.8h9.1
		V75h-9.1v4.3h10.5v3.2h-25.4v-3.2H226V75H216.8z M221.1,52.3v4.6h4.9v-4.6H221.1z M221.1,60v4.4h4.9V60H221.1z M234.7,52.3h-4.9
		v4.6h4.9V52.3z M229.8,60v4.4h4.9V60H229.8z"/>
</g>
<g>
	<path class="st5" d="M44.7,63.9v-3.4h34.1v3.4H70v4.4h9.6v3.4H70v5.5c0.1,3.2-1.5,4.8-4.9,4.7C64.2,82,62.3,82,59.5,82
		c-0.1-1.1-0.4-2.3-0.9-3.5c1.6,0,3.2,0,4.7,0c1.8,0.1,2.7-0.6,2.6-2.1v-4.7h-0.9c-4.5,4.5-11.2,7.8-20.3,9.9
		c-0.4-1.2-1-2.4-1.7-3.7c7.3-1.1,12.9-3.2,16.8-6.2h-9.3l-0.6,1.7h-4.3l2.9-8.4l4.1,0.3l-1.1,3h14.3v-4.4H44.7z M49.9,60.5
		c-0.1-0.1-0.3-0.4-0.5-0.8c-0.4-0.9-0.8-1.6-1.2-2c4.3-0.9,6.6-2.6,7-5h-6.4v3h-4.1v-6.4h15.2v-3.5H64v3.5H79v6.2h-3.2
		c-0.2,2.3-1.5,3.5-4,3.5h-4.7c-2,0-3-0.9-3-2.6v-3.8h-5.8C58,56.4,55.2,59,49.9,60.5z M74.9,52.8h-7.6V56c-0.1,0.6,0.3,0.9,1.1,0.8
		h2.6c0.9,0.1,1.4-0.6,1.4-2.1c0.1,0,0.3,0.1,0.5,0.2c0.9,0.4,1.6,0.7,2.1,0.8V52.8z"/>
	<path class="st5" d="M82.5,56.6v-3.7h3.8v-7h3.8v7h3.4v3.7h-3.4v5.8l3.2-1.1v2.4c4.8-2.3,8.5-5.4,11.1-9.3l4.1,0.3l-0.6,1.1
		c3,3.7,6.9,6.2,11.4,7.8c-0.7,1.1-1.4,2.3-2,3.5c-1.4-0.6-3.1-1.5-5-2.7v2.1H99.2v-2c-1.3,1-2.9,2-4.7,3l-1.2-2.1l-3.2,1.1v11
		c0,2.7-1.3,4.2-3.8,4.4c-0.9,0-2.1,0-3.5,0.2c-0.1-0.4-0.2-1.1-0.3-2c-0.2-0.8-0.4-1.5-0.5-2c0.7,0,1.5,0,2.4,0
		c1.3,0.1,1.9-0.4,1.8-1.5v-8.8l-3.8,1.4L82,64.8c1.3-0.3,2.7-0.7,4.3-1.2v-7H82.5z M93.9,52.8v-3.4h4.7v-3.5h3.8v3.5h7.3v-3.5h3.8
		v3.5h5v3.4h-5v3h-3.8v-3h-7.3v3h-3.8v-3H93.9z M95.7,82.3V69.4H116v12.9h-3.7v-1.8H99.5v1.8H95.7z M99.5,72.6v5h12.8v-5H99.5z
		 M105.8,58.4c-1.4,1.9-3.2,3.7-5.3,5.2h10.8C109.4,62.4,107.6,60.6,105.8,58.4z"/>
	<path class="st5" d="M164.7,79.6l-0.5-3.8c0.2,0,0.6,0,1.2,0c0.6-0.1,1.1-0.2,1.4-0.2V47.9h14v26.4l2-0.3c0,0.6,0,1.2,0,1.8
		c2.2-3.1,3.5-8.8,3.7-16.9c0-0.2,0-0.5,0.2-0.9c0-0.4,0-0.7,0-0.8h-4v-3.8h4l0.2-7.3h4c-0.1,1.7-0.2,4.2-0.2,7.3h9
		c-0.2,11.6-0.4,19.2-0.6,23c-0.1,3.2-1.7,4.9-4.9,5c-0.8,0.1-2.5,0.2-5.2,0.2c-0.2-1.2-0.5-2.5-0.8-3.8c1.6,0.1,3,0.2,4.3,0.2
		c1.7,0,2.6-0.9,2.7-2.6c0-0.3,0-0.7,0-1.2c0.3-7.4,0.5-13,0.5-16.9h-5.2c0,0.2,0,0.5,0,0.9c-0.1,0.4-0.2,0.7-0.2,0.9
		c0.1,11.1-2.4,18.8-7.6,23.3c-0.2-0.2-0.5-0.6-0.9-1.1c-0.7-0.8-1.3-1.5-1.8-2.1l1.4-1.2C177,78.1,171.4,78.7,164.7,79.6z
		 M170.5,51.2V57h6.6v-5.8H170.5z M170.5,60.2v5.6h6.6v-5.6H170.5z M170.5,75.2c0.1,0,0.3,0,0.5,0c1.9-0.1,4-0.3,6.1-0.6v-5.5h-6.6
		V75.2z"/>
	<path class="st5" d="M203.7,52.2v-3.8h11.9v3.8h-4v9h3.8v3.7h-3.8v9.3l4-0.9c0,1.4,0,2.7,0.2,4c-0.5,0.1-1.3,0.3-2.4,0.5
		c-4,0.6-7.1,1.2-9.4,1.7l-0.6-3.8l4.6-0.8v-9.9H204v-3.7h3.8v-9H203.7z M216.8,73.5v-3.4h9.1v-3.8h-8.7V47.4h21.2v18.9h-8.7v3.8
		h9.1v3.4h-9.1v4.3h10.5v3.2h-25.4v-3.2H226v-4.3H216.8z M221.1,50.8v4.6h4.9v-4.6H221.1z M221.1,58.6V63h4.9v-4.4H221.1z
		 M234.7,50.8h-4.9v4.6h4.9V50.8z M229.8,58.6V63h4.9v-4.4H229.8z"/>
</g>
</svg>
