<svg id="Layer_1" data-name="Layer 1" xmlns="http://www.w3.org/2000/svg" xmlns:xlink="http://www.w3.org/1999/xlink" viewBox="0 0 64 64"><defs><style>.cls-1{fill-rule:evenodd;fill:url(#linear-gradient);}.cls-2{fill:url(#linear-gradient-2);}</style><linearGradient id="linear-gradient" x1="9.19" y1="9.19" x2="53.42" y2="53.42" gradientUnits="userSpaceOnUse"><stop offset="0" stop-color="#e6e6e6"/><stop offset="0.53" stop-color="#bfbfbf"/><stop offset="1" stop-color="#d4d4d4"/></linearGradient><linearGradient id="linear-gradient-2" x1="21.77" y1="25.36" x2="42.24" y2="45.83" gradientUnits="userSpaceOnUse"><stop offset="0" stop-color="#bfbfbf"/><stop offset="1" stop-color="#a6a6a6"/></linearGradient></defs><title>icon_nav-home</title><path class="cls-1" d="M32,60.12A28.12,28.12,0,1,0,3.88,32,28.12,28.12,0,0,0,32,60.12ZM32,64A32,32,0,1,1,64,32,32,32,0,0,1,32,64Z"/><path class="cls-2" d="M42.82,44.7V32a1.3,1.3,0,1,0-2.6,0V43.39H36.14v-7a1.74,1.74,0,0,0-1.73-1.73H29.59a1.74,1.74,0,0,0-1.73,1.73v7H23.78V32a1.3,1.3,0,0,0-2.6,0V44.7a1.3,1.3,0,0,0,1.3,1.3h6.68a1.31,1.31,0,0,0,1.31-1.3V37.3h3.09v7.4A1.31,1.31,0,0,0,34.87,46h6.68A1.28,1.28,0,0,0,42.82,44.7ZM45.69,32a1.4,1.4,0,0,1-.91-.36L32,19.14,19.22,31.62a1.31,1.31,0,1,1-1.82-1.89L31.09,16.37a1.31,1.31,0,0,1,1.82,0L46.6,29.73a1.32,1.32,0,0,1,0,1.86A1.37,1.37,0,0,1,45.69,32Z"/></svg>