<svg id="Layer_1" data-name="Layer 1" xmlns="http://www.w3.org/2000/svg" viewBox="0 0 32 32"><defs><style>.cls-1{fill:#fbb03b;}.cls-1,.cls-2{fill-rule:evenodd;}.cls-2{fill:#915a24;}</style></defs><title>toggle-active</title><path class="cls-1" d="M16,0A16,16,0,1,0,32,16,16,16,0,0,0,16,0M26.07,11.11,15.36,23.36a2.47,2.47,0,0,1-1.85.8h0a2.48,2.48,0,0,1-1.84-.78L6,17a1.86,1.86,0,0,1,.4-2.86,2.58,2.58,0,0,1,3.29.34l3.83,4.26L22.34,8.64a2.59,2.59,0,0,1,3.29-.39,1.87,1.87,0,0,1,.44,2.86"/><path class="cls-2" d="M26.07,11.11,15.36,23.36a2.47,2.47,0,0,1-1.85.8h0a2.48,2.48,0,0,1-1.84-.78L6,17a1.86,1.86,0,0,1,.4-2.86,2.58,2.58,0,0,1,3.29.34l3.83,4.26L22.34,8.64a2.59,2.59,0,0,1,3.29-.39,1.87,1.87,0,0,1,.44,2.86"/></svg>